# xmcd
#
# Track frame offsets:
#	150
#	18085
#	28837
#	42476
#	57825
#	70755
#	99596
#	116787
#	129099
#	149412
#	172106
#
# Disc length: 2542 seconds
#
# Revision: 0
# Processed by: cddbd v1.5.2PL0 Copyright (c) Steve Scherf et al.
# Submitted via: dBpowerAMP V4.0
#
DISCID=9809ec0b
DTITLE=Baby Woodrose - Chasing Rainbows
DYEAR=2007
DGENRE=Soul
TTITLE0=Someone to love
TTITLE1=I'm gonna make you mine
TTITLE2=Let yourself go
TTITLE3=Twilight princess
TTITLE4=Lilith
TTITLE5=In your life
TTITLE6=Chasing rainbows
TTITLE7=No more darkness
TTITLE8=Dark twin
TTITLE9=Renegade soul
TTITLE10=Madness of your own making
EXTD=
EXTT0=
EXTT1=
EXTT2=
EXTT3=
EXTT4=
EXTT5=
EXTT6=
EXTT7=
EXTT8=
EXTT9=
EXTT10=
PLAYORDER=
